<svg width="920" height="280" viewBox="0 0 920 280" fill="none" xmlns="http://www.w3.org/2000/svg" role="img" aria-labelledby="title desc">
  <title id="title">Jim Steven Espelico contribution graph</title>
  <desc id="desc">Local contribution graph for Jim Steven Espelico.</desc>
  <defs>
    <linearGradient id="frame" x1="10" y1="10" x2="910" y2="270" gradientUnits="userSpaceOnUse">
      <stop stop-color="#A21CAF"/>
      <stop offset="0.5" stop-color="#2563EB"/>
      <stop offset="1" stop-color="#14F1D9"/>
    </linearGradient>
    <style>
      .mono { font-family: "SFMono-Regular", "Menlo", "Consolas", monospace; }
    </style>
  </defs>
  <rect width="920" height="280" rx="18" fill="#08101E" stroke="url(#frame)" stroke-width="2"/>
  <text x="24" y="34" class="mono" fill="#E6EDF3" font-size="16" font-weight="700">jimsteven's Contribution Graph</text>
  <g stroke="#263248" stroke-width="1">
    <line x1="70" y1="220" x2="890" y2="220"/>
    <line x1="70" y1="186" x2="890" y2="186"/>
    <line x1="70" y1="152" x2="890" y2="152"/>
    <line x1="70" y1="118" x2="890" y2="118"/>
    <line x1="70" y1="84" x2="890" y2="84"/>
  </g>
  <g stroke="#172033" stroke-width="1">
    <line x1="70" y1="50" x2="70" y2="220"/>
    <line x1="150" y1="50" x2="150" y2="220"/>
    <line x1="230" y1="50" x2="230" y2="220"/>
    <line x1="310" y1="50" x2="310" y2="220"/>
    <line x1="390" y1="50" x2="390" y2="220"/>
    <line x1="470" y1="50" x2="470" y2="220"/>
    <line x1="550" y1="50" x2="550" y2="220"/>
    <line x1="630" y1="50" x2="630" y2="220"/>
    <line x1="710" y1="50" x2="710" y2="220"/>
    <line x1="790" y1="50" x2="790" y2="220"/>
    <line x1="870" y1="50" x2="870" y2="220"/>
  </g>
  <polyline points="70,220 110,220 150,220 190,220 230,220 270,220 310,220 350,220 390,220 430,220 470,220 510,220 550,220 590,220 630,220 670,220 710,220 750,220 790,220 830,220 870,82" fill="none" stroke="#14F1D9" stroke-width="3" stroke-linecap="round" stroke-linejoin="round"/>
  <circle cx="870" cy="82" r="4" fill="#31C6FF"/>
  <text x="24" y="258" class="mono" fill="#8BA0BE" font-size="10">Local fallback graph</text>
  <text x="40" y="240" class="mono" fill="#8BA0BE" font-size="10">0</text>
  <text x="40" y="88" class="mono" fill="#8BA0BE" font-size="10">1</text>
</svg>
